<?xml version="1.0" encoding="iso-8859-1"?>
<!-- Uploaded to: SVG Repo, www.svgrepo.com, Generator: SVG Repo Mixer Tools -->
<svg fill="#000000" height="800px" width="800px" version="1.1" id="Layer_1" xmlns="http://www.w3.org/2000/svg" xmlns:xlink="http://www.w3.org/1999/xlink" 
	 viewBox="0 0 512.001 512.001" xml:space="preserve">
<g>
	<g>
		<path d="M504.11,203.5h-9.097c-3.656-12.67-9.635-22.498-18.23-30.306c-16.901-15.354-44.156-22.505-85.77-22.505H120.986
			c-41.615,0-68.869,7.151-85.77,22.505c-8.595,7.808-14.575,17.636-18.23,30.306H7.89c-4.357,0-7.89,3.533-7.89,7.89
			s3.533,7.89,7.89,7.89h5.914c-0.852,6.641-1.269,13.901-1.269,21.863c0,29.044,11.432,58.974,31.366,82.116
			c21.137,24.539,48.513,38.053,77.086,38.053c30.028,0,57.463-13.515,77.25-38.055c4.788-5.939,9.04-12.396,12.753-19.313
			c0.654,0.209,1.316,0.4,1.991,0.547l4.071,0.892c1.584,0.347,3.178,0.519,4.762,0.519c4.166,0,8.251-1.188,11.843-3.488
			c4.957-3.175,8.381-8.091,9.642-13.841l6.177-28.184c1.26-5.75,0.206-11.647-2.969-16.605c-3.175-4.957-8.09-8.381-13.841-9.642
			l-3.476-0.762c0.053-1.115,0.099-2.233,0.135-3.358c0.156-8.034,18.351-10.744,26.674-10.744c8.322,0,26.518,2.71,26.674,10.744
			c0.036,1.125,0.081,2.243,0.135,3.357l-3.477,0.762c-11.87,2.602-19.411,14.376-16.81,26.246l6.177,28.184
			c1.26,5.75,4.685,10.665,9.642,13.84c3.593,2.301,7.678,3.488,11.842,3.488c1.583,0,3.178-0.171,4.761-0.519l4.071-0.892
			c0.676-0.148,1.338-0.339,1.993-0.548c3.715,6.917,7.966,13.375,12.755,19.313c19.788,24.54,47.223,38.055,77.25,38.055
			c28.574,0,55.949-13.514,77.086-38.053c19.934-23.142,31.366-53.072,31.366-82.116c0-7.962-0.418-15.222-1.269-21.863h5.914
			c4.357,0,7.89-3.533,7.89-7.89S508.467,203.5,504.11,203.5z M213.556,229.312c-0.008,0.231-0.014,0.458-0.015,0.676
			c-1.138,33.604-10.617,62.316-27.588,83.363c-16.732,20.752-39.805,32.18-64.966,32.18c-23.908,0-47.037-11.568-65.13-32.571
			c-17.503-20.321-27.542-46.497-27.542-71.818c0-8.156,0.465-15.405,1.42-21.863h2.558c4.357,0,7.89-3.533,7.89-7.89
			c0-3.923-2.866-7.167-6.616-7.778c2.846-7.737,6.892-13.862,12.259-18.737c13.822-12.557,37.704-18.405,75.16-18.405
			c40.576,0,63.362,3.532,76.188,11.807c11.709,7.555,16.484,20.531,16.484,44.79C213.659,225.168,213.619,227.247,213.556,229.312z
			 M229.289,249.558c1.634,0.358,3.03,1.331,3.931,2.738s1.201,3.082,0.843,4.715l-6.176,28.184c-0.358,1.633-1.33,3.029-2.738,3.93
			c-1.408,0.902-3.081,1.201-4.715,0.843l-2.694-0.59c4.865-12.296,8.249-25.746,10.081-40.143L229.289,249.558z M291.566,289.969
			c-3.371,0.743-6.714-1.402-7.453-4.774l-6.177-28.184c-0.738-3.371,1.403-6.715,4.774-7.454l1.469-0.322
			c1.833,14.398,5.218,27.847,10.081,40.143L291.566,289.969z M283.219,208.867c-1.279-0.595-2.658-1.159-4.155-1.681
			c-7.795-2.718-17.026-3.686-23.064-3.686c-6.039,0-15.269,0.968-23.064,3.686c-1.468,0.511-2.818,1.064-4.077,1.646
			c-1.482-16.033-6.395-31.83-21.009-42.363h96.267C294.739,173.102,285.68,183.885,283.219,208.867z M456.142,312.961
			c-18.092,21.004-41.223,32.571-65.13,32.571c-25.161,0-48.233-11.428-64.966-32.18c-16.971-21.048-26.449-49.759-27.587-83.363
			c-0.001-0.219-0.006-0.445-0.015-0.676c-0.063-2.065-0.103-4.144-0.103-6.246c0-24.259,4.775-37.236,16.484-44.79
			c12.826-8.276,35.611-11.807,76.187-11.807c37.456,0,61.337,5.848,75.16,18.405c5.367,4.875,9.413,11.002,12.259,18.737
			c-3.75,0.61-6.616,3.856-6.616,7.778c0,4.357,3.533,7.89,7.89,7.89h2.56c0.955,6.458,1.42,13.707,1.42,21.863
			C483.684,266.464,473.646,292.64,456.142,312.961z"/>
	</g>
</g>
</svg>